<svg xmlns="http://www.w3.org/2000/svg" viewBox="0 0 50 61"><path fill="#e30f13" d="M0 0h50v50H0z" data-name="PEGI repeat"/><g data-name="3" fill="#fff"><path d="M17.6 42.9H9.8V15.8H4.7v-4.6c3.5.1 5.8-1.4 7.1-4.8h5.9zM24.8 32.5c0-3.6.8-6.2 3.8-8.4a10 10 0 0 1-3.3-7.9c0-5.8 3.7-9.8 9.7-9.8s9.7 4.1 9.7 9.8a10 10 0 0 1-3.3 7.9c3 2.3 3.8 4.8 3.8 8.4 0 6.5-2 11-10.1 11s-10.3-4.5-10.3-11zm10.1-5.1c-1.8 0-2.2 1.3-2.2 4.7s.5 4.7 2.3 4.7 2.3-1.2 2.3-4.7-.6-4.7-2.4-4.7zm0-14.4c-1.7 0-2 .8-2 4.3s.4 4.3 2 4.3 2-.8 2-4.2-.4-4.4-2-4.4z"/></g><path d="M0 61h50V0H0m49 49H1V1h48z" fill="#1d1d1b" data-name="BORDER black"/><g data-name="TM black"><path d="M44.8 2v.4H44v2.5h-.5V2.4h-.8V2zM48 4.9h-.5V2.6l-.8 2.3h-.4l-.8-2.3v2.3H45V2h.7l.7 2.1.9-2.1h.7z" fill="#1d1d1b"/><path fill="#fff" d="M3.2 57.3H4l.8-3.8.8 3.8h.8l1.1-4.7h-.7l-.7 3.8H6l-.7-3.8h-.9l-.8 3.8-.7-3.8h-.8l1.1 4.7zM8.8 57.3h.8l.8-3.8.8 3.8h.8l1.1-4.7h-.7l-.7 3.8h-.1l-.7-3.8H10l-.8 3.8-.7-3.8h-.8l1.1 4.7zM14.4 57.3h.9l.7-3.8.9 3.8h.8l1.1-4.7H18l-.7 3.8-.8-3.8h-.9l-.8 3.8-.7-3.8h-.8l1.1 4.7zM19.2 57.3h.8v-1h-.8v1z"/><path d="M21.8 54.9c0-1.1.1-1.8.9-1.8s.8.7.8 1.7-.2 1.9-.8 1.9-.9-.9-.9-1.8zm-.7 3.8h.7v-2a1.1 1.1 0 0 0 1 .6c1.2 0 1.5-1.5 1.5-2.5s-.4-2.4-1.5-2.4a1.1 1.1 0 0 0-1 .7v-.6h-.7v6.2zM25.7 54.4v-.2c0-.3.1-1.2.8-1.2s.8.6.8 1.1v.3zm2.4.6v-.3c0-1-.1-2.2-1.5-2.2s-1.7 1.3-1.7 2.5.5 2.4 1.6 2.4a1.6 1.6 0 0 0 1.6-1.6h-.7c0 .3-.1 1.1-.8 1.1s-.9-1.1-.9-1.8zM30.4 53.1c.8 0 .9.9.9 1.8s-.2 1.7-.9 1.7-.8-.9-.8-1.7.2-1.8.8-1.8zm1.6-.5h-.7v.6a1 1 0 0 0-1-.7c-1.2 0-1.5 1.2-1.5 2.4s.1 2.3 1.4 2.3a1.1 1.1 0 0 0 1-.6v.6c0 .3 0 1-.9 1s-.7-.2-.7-.6h-.7a1.3 1.3 0 0 0 1.5 1.2c.9 0 1.6-.5 1.6-1.9v-4.3zM33 57.3h.7v-4.7H33v4.6zm0-5.4h.7v-.8H33v.8z" fill="#fff" fill-rule="evenodd"/><path fill="#fff" d="M34.9 57.3h.8v-1h-.8v1z"/><path d="M36.8 57.3h.7v-4.7h-.7v4.6zm0-5.4h.7v-.8h-.7v.8z" fill="#fff" fill-rule="evenodd"/><path d="M38.6 57.3h.7V54a.9.9 0 0 1 .9-.9c.7 0 .7.6.7.9v3.2h.7V54c0-.5 0-1.5-1.2-1.5a1.2 1.2 0 0 0-1.1.7v-.5h-.7v4.6zM42.8 57.3h.7v-4.1h.8v-.6h-.8v-.5c0-.3.2-.4.5-.4h.3V51h-.5c-.7 0-1 .4-1 1.1v.5h-.7v.6h.7v4.1z" fill="#fff"/><path d="M44.6 54.9c0 1.3.3 2.4 1.7 2.4s1.7-1.1 1.7-2.4-.3-2.4-1.7-2.4-1.7 1.1-1.7 2.4zm1.7 1.9c-.7 0-.9-.9-.9-1.9s.2-1.9.9-1.9.9.9.9 1.9-.2 1.9-.9 1.9z" fill="#fff" fill-rule="evenodd"/></g></svg>
