<svg xmlns="http://www.w3.org/2000/svg" viewBox="0 0 293.2 109.5" width="153px"><style>.st0{fill:#fff}.st1{fill:url(#SVGID_1_)}</style><path class="st0" d="M116.3 36c0-3.3-2.8-4.9-8.3-4.9H97.1l-8.8 24.1h13.4c4 0 6.8-.6 9.1-2.4 1.9-1.4 3-3.6 3-5.3 0-2.4-1.5-3.9-4.8-4.9 4.8-1.1 7.3-3.3 7.3-6.6zm-17 15.4H96l2.4-6.9h4.4c3.2 0 4.8.7 4.8 2.5-.1 2.7-2.9 4.4-8.3 4.4zm2.9-10.4h-2.5l2.2-6.4h4.9c2.2 0 3.4.8 3.4 2.3 0 2.7-2.7 4.1-8 4.1zm23.5 14.6c3.6 0 6.4-.8 8.4-2.3 2.8-2.2 4.7-6.1 4.7-9.5 0-3.7-2.8-5.9-8.3-5.9-4 0-6.9 1-9.2 3.2-2.4 2.3-3.8 5.7-3.8 8.4.1 4 2.9 6.1 8.2 6.1zm.4-11.9c1.3-1.8 2.8-2.6 4.3-2.6 1.8 0 2.7.8 2.7 2.4 0 1.2-.8 3.8-2.2 6-1.4 2-2.9 3-4.6 3-1.7 0-2.6-.8-2.6-2.5-.1-1.4.6-3.9 2.4-6.3zm29.8-2.3c-2.4 0-4.6 1.7-5.7 4.8l-3.2 9h-6.1l8.7-24.1h6.1l-3.5 9.6c2.4-1.8 4.6-2.7 7.1-2.7 3.1 0 5 1.4 5 3.9 0 1.4-.5 2.7-1 4.1l-3.3 9.2h-6.1l3.9-10.7c.2-.6.4-1.2.4-1.5-.2-1.1-1-1.6-2.3-1.6zm19.7 14.1c5.2 0 8.4-1.7 9.8-5.5h-5.9c-.7 1.6-2.1 2.4-3.7 2.4s-2.5-.8-2.5-2.2c0-.7.2-1.4.4-2.3h12.6c.6-1.8 1-3.4 1-4.7 0-3.5-2.6-5.3-7.7-5.3-3.7 0-6.4 1.1-8.6 3.5-1.9 2.1-3.3 5.7-3.3 8.5.1 3.7 2.7 5.6 7.9 5.6zm4-14.6c1.5 0 2.4.7 2.4 1.9 0 .5-.2 1.2-.5 2.1H175c.7-2.6 2.6-4 4.6-4zm39.2 3.5c.2-.6.3-1.1.3-1.5 0-1-.7-1.5-2.1-1.5-2.3 0-4.6 1.7-5.7 4.8l-3.1 9h-6l3.8-10.7c.2-.6.3-1.1.3-1.5 0-1-.7-1.5-2.1-1.5-2.3 0-4.6 1.7-5.7 4.8l-3.1 9h-6.1l4.2-11.7c.4-1.1 1.1-2.8 1.5-5.1h5.7L200 41c2.6-2 4.8-3 7.5-3 2.8 0 4.6 1.2 4.9 3.2 2.9-2 5.2-3.2 8-3.2 3.1 0 4.9 1.4 4.9 3.9 0 1.4-.5 2.7-1 4.1l-3.3 9.2h-6l3.8-10.8zm14.7 10.8h-6.1l6-16.8h6.1l-6 16.8zm7-20.3h-6.1l1.4-3.8h6.1l-1.4 3.8zm12.6 5.8c1.5 0 2.2.5 2.2 1.5 0 .6-.2 1.3-.6 2.2-9.4-.3-14.4 2.1-14.4 6.5 0 2.6 2.1 4.4 5.6 4.4 2.4 0 4.3-.8 6.1-2.7-.2.8-.3 1.6-.3 2.5h5.5c.1-1.5.4-3 .9-4.3l2.1-5.7c.4-1 .7-2 .7-2.9 0-2.9-2.5-4.3-7.5-4.3-5.3 0-8.5 1.8-9.2 4.8h5.7c.6-1.4 1.5-2 3.2-2zm-4.9 11.6c-1.3 0-2.1-.6-2.1-1.7 0-2 2.7-3.6 6.6-3.6h1.1c-1 3.4-3.4 5.3-5.6 5.3zM89.9 68.8l-8.6 24.1h-6.4l8.6-24.1h6.4zm21.3 10.8c0 1.4-.5 2.7-1 4.1l-3.3 9.2h-6.1l3.9-10.7c.2-.6.4-1.2.4-1.5 0-.9-.8-1.5-2.2-1.5-2.4 0-4.6 1.7-5.7 4.8L94 93h-6.1L92 81.2c.4-1.1 1.1-2.8 1.5-5.1h5.7l-.6 2.6c2.6-2 4.9-3 7.6-3 3.1-.1 5 1.4 5 3.9zm14.6-3.6h4.6l-1.1 3h-4.5l-2.7 7.5c-.2.6-.3 1.1-.3 1.6 0 .8.7 1.3 1.9 1.3.7 0 1.5-.1 2.5-.3l-1.3 3.4c-1.6.3-3.1.4-4.4.4-3.4 0-5.3-1.2-5.3-3.2 0-.6.1-1.4.5-2.4l3-8.4h-3.9l1.1-3h3.8l1.3-3.4 6.5-1.3-1.7 4.8zm17.2-.4c-3.7 0-6.4 1.1-8.6 3.5-1.9 2.1-3.3 5.7-3.3 8.5 0 3.7 2.6 5.6 7.8 5.6 5.2 0 8.4-1.7 9.8-5.5h-5.9c-.7 1.6-2.1 2.4-3.7 2.4s-2.5-.8-2.5-2.2c0-.7.2-1.4.4-2.3h12.6c.6-1.8 1-3.4 1-4.7.1-3.5-2.5-5.3-7.6-5.3zm1.7 7h-6.4c.7-2.6 2.6-4 4.6-4 1.5 0 2.4.7 2.4 1.9-.1.5-.3 1.2-.6 2.1zm25.7-6.8l-1.4 4.3c-4.6-.2-6.4 1.6-7.9 5.8l-2.5 6.9h-6.1l4.7-13.1c.3-.9.7-2.1 1-3.6h5.8l-.7 2.8c1.7-2.3 3.8-3.2 7.1-3.1zm12.1-.2c-5.3 0-8.5 1.8-9.2 4.9h5.7c.5-1.5 1.4-2.1 3.1-2.1 1.5 0 2.2.5 2.2 1.5 0 .6-.2 1.3-.6 2.2-9.4-.3-14.4 2.1-14.4 6.5 0 2.6 2.1 4.4 5.6 4.4 2.4 0 4.3-.8 6.1-2.7-.2.8-.3 1.6-.3 2.5h5.5c.1-1.5.4-3 .9-4.3l2.1-5.7c.4-1 .7-2 .7-2.9.1-2.8-2.4-4.3-7.4-4.3zM177.3 90c-1.3 0-2.1-.6-2.1-1.7 0-2 2.7-3.6 6.6-3.6h1.1c-1.1 3.4-3.5 5.3-5.6 5.3zm36.8-10c0 .6-.1 1.3-.4 2H208c.1-.8.2-1.3.2-1.6 0-1.1-.8-1.7-2.3-1.7-1.5 0-2.6.7-3.6 2.2-1.7 2.5-2.7 5.8-2.7 7.2 0 1.2.9 2 2.4 2 2.1 0 3.4-1 4.2-3h6c-1.1 4.1-4.7 6.2-10.7 6.2-4.9 0-7.8-2.2-7.8-5.3 0-2.9 1.9-7.1 4.2-9.4 2-2 4.6-2.9 8.3-2.9 5.1-.1 7.9 1.5 7.9 4.3zm9.9 6.6c-.2.6-.3 1.1-.3 1.6 0 .8.7 1.3 1.9 1.3.7 0 1.5-.1 2.5-.3l-1.3 3.4c-1.6.3-3.1.4-4.4.4-3.4 0-5.2-1.2-5.2-3.2 0-.6.1-1.4.5-2.4l3-8.4h-3.9l1.1-3h3.8l1.3-3.4 6.5-1.3-1.8 4.8h4.6l-1.1 3h-4.5l-2.7 7.5zM237.6 76h6.1l-6 16.8h-6.1l6-16.8zm2.4-7.2h6.1l-1.4 3.8h-6.1l1.4-3.8zm21.5 7.2h6L256 92.8h-6.8L246.3 76h5.8l1.7 12.1 7.7-12.1zm24.7 9.6c.6-1.8 1-3.4 1-4.7 0-3.5-2.6-5.3-7.7-5.3-3.7 0-6.4 1.1-8.6 3.5-1.9 2.1-3.3 5.7-3.3 8.5 0 3.7 2.6 5.6 7.8 5.6 5.2 0 8.4-1.7 9.8-5.5h-5.9c-.7 1.6-2.1 2.4-3.7 2.4s-2.5-.8-2.5-2.2c0-.7.2-1.4.4-2.3h12.7zm-6.8-7c1.5 0 2.4.7 2.4 1.9 0 .5-.2 1.2-.5 2.1h-6.4c.6-2.6 2.5-4 4.5-4zM77.1 60.3c6-16.3-.1-34.4-18.4-37.5 3.2-7.9 6-15.3 8-21.7-1.6-.5-3.3-.9-5.1-1.2-1.2 6.4-3.5 14.1-6.4 22.5-.7 0-1.4-.1-2.2-.1-19.6 0-39.7 13.8-48.6 32 .8-.6 1.6-1 2.6-1.3.9-.2 1.9-.3 2.8-.1C18.4 38 36.3 26.4 52.5 26.4h1.3C46 48.2 34.9 73.5 28.7 92c-.1.4-.3.9-.4 1.3h-1.2c-6.7 0-12.1-1.8-15.9-5-4.1-2.2-7.9-7.6-9.8-14.4-.6-2.1-.9-4.1-1-6.1-2.1 16.6 8 29.3 26 29.3h.6c-1 2.9-1.9 5.8-2.4 7.9-.4 1.5-1.1 3.8-1.2 4.3v.2c.5-2 .5-1.9 1.3-4.2.2-.6 1.2-3.8 1.5-4.5.4-1.2.9-2.4 1.3-3.6 18.4-.6 41.5-14.6 49.6-36.9zm-48.3 33C36.1 74.5 48 48.9 57.1 26.8 74 29.1 78.5 44.5 73 59.5c-6.5 17.6-26.3 32.8-44.2 33.8z"/><linearGradient id="SVGID_1_" gradientUnits="userSpaceOnUse" x1="18.684" y1="66.562" x2="293.223" y2="66.562"><stop offset="0" stop-color="#e20613"/><stop offset=".2" stop-color="#ffec00"/><stop offset=".4" stop-color="#009540"/><stop offset=".6" stop-color="#009be0"/><stop offset=".8" stop-color="#312782"/><stop offset="1" stop-color="#e5007e"/></linearGradient><path class="st1" d="M18.7 71.8c2.3-3.2 4.6-6.5 6.9-9.7 15.4-1.1 249.8-.7 267.6-.3-.3.4-.5.9-.8 1.3-26.1-.4-257.6-3.3-273.7 8.7z"/></svg>
